<?xml version="1.0" encoding="UTF-8" standalone="no"?>
<!DOCTYPE svg PUBLIC "-//W3C//DTD SVG 1.1//EN"
 "http://www.w3.org/Graphics/SVG/1.1/DTD/svg11.dtd">
<!-- Generated by graphviz version 2.40.1 (20161225.0304)
 -->
<!-- Title: %3 Pages: 1 -->
<svg width="392pt" height="1109pt"
 viewBox="0.00 0.00 392.34 1109.00" xmlns="http://www.w3.org/2000/svg" xmlns:xlink="http://www.w3.org/1999/xlink">
<g id="graph0" class="graph" transform="scale(1 1) rotate(0) translate(4 1105)">
<title>%3</title>
<polygon fill="#ffffff" stroke="transparent" points="-4,4 -4,-1105 388.3443,-1105 388.3443,4 -4,4"/>
<!-- ca47 -->
<g id="node1" class="node">
<title>ca47</title>
<ellipse fill="none" stroke="#000000" cx="187.4971" cy="-192" rx="32.4942" ry="18"/>
<text text-anchor="middle" x="187.4971" y="-188.3" font-family="Times-Roman" font-size="14.00" fill="#000000">ca47</text>
</g>
<!-- ca4V -->
<g id="node2" class="node">
<title>ca4V</title>
<ellipse fill="none" stroke="#000000" cx="119.4971" cy="-105" rx="32.4942" ry="18"/>
<text text-anchor="middle" x="119.4971" y="-101.3" font-family="Times-Roman" font-size="14.00" fill="#000000">ca4V</text>
</g>
<!-- ca47&#45;&gt;ca4V -->
<g id="edge1" class="edge">
<title>ca47&#45;&gt;ca4V</title>
<path fill="none" stroke="#000000" d="M171.8817,-175.9402C166.211,-169.8596 159.879,-162.7694 154.4971,-156 148.2152,-148.0985 141.8277,-139.1235 136.259,-130.9287"/>
<polygon fill="#000000" stroke="#000000" points="139.047,-128.8013 130.5816,-122.4304 133.2264,-132.6898 139.047,-128.8013"/>
<text text-anchor="middle" x="163.9971" y="-144.8" font-family="Times-Roman" font-size="14.00" fill="#000000">10</text>
</g>
<!-- ca4U -->
<g id="node11" class="node">
<title>ca4U</title>
<ellipse fill="none" stroke="#000000" cx="266.4971" cy="-105" rx="33.2948" ry="18"/>
<text text-anchor="middle" x="266.4971" y="-101.3" font-family="Times-Roman" font-size="14.00" fill="#000000">ca4U</text>
</g>
<!-- ca47&#45;&gt;ca4U -->
<g id="edge19" class="edge">
<title>ca47&#45;&gt;ca4U</title>
<path fill="none" stroke="#000000" d="M202.3564,-175.636C214.2735,-162.5121 231.1727,-143.9015 244.6335,-129.0777"/>
<polygon fill="#000000" stroke="#000000" points="247.5731,-131.0468 251.7045,-121.2907 242.3908,-126.341 247.5731,-131.0468"/>
<text text-anchor="middle" x="240.9971" y="-144.8" font-family="Times-Roman" font-size="14.00" fill="#000000">90</text>
</g>
<!-- ca46 -->
<g id="node13" class="node">
<title>ca46</title>
<ellipse fill="none" stroke="#000000" cx="187.4971" cy="-18" rx="32.4942" ry="18"/>
<text text-anchor="middle" x="187.4971" y="-14.3" font-family="Times-Roman" font-size="14.00" fill="#000000">ca46</text>
</g>
<!-- ca4V&#45;&gt;ca46 -->
<g id="edge7" class="edge">
<title>ca4V&#45;&gt;ca46</title>
<path fill="none" stroke="#000000" d="M130.5816,-87.5696C137.1931,-77.5095 145.9431,-64.7595 154.4971,-54 157.7767,-49.8749 161.4091,-45.6307 165.0297,-41.5684"/>
<polygon fill="#000000" stroke="#000000" points="167.7262,-43.8058 171.8817,-34.0598 162.5556,-39.0872 167.7262,-43.8058"/>
<text text-anchor="middle" x="163.9971" y="-57.8" font-family="Times-Roman" font-size="14.00" fill="#000000">10</text>
</g>
<!-- ca4m -->
<g id="node3" class="node">
<title>ca4m</title>
<ellipse fill="none" stroke="#000000" cx="116.4971" cy="-822" rx="34.394" ry="18"/>
<text text-anchor="middle" x="116.4971" y="-818.3" font-family="Times-Roman" font-size="14.00" fill="#000000">ca4m</text>
</g>
<!-- ca4l -->
<g id="node4" class="node">
<title>ca4l</title>
<ellipse fill="none" stroke="#000000" cx="186.4971" cy="-735" rx="28.6953" ry="18"/>
<text text-anchor="middle" x="186.4971" y="-731.3" font-family="Times-Roman" font-size="14.00" fill="#000000">ca4l</text>
</g>
<!-- ca4m&#45;&gt;ca4l -->
<g id="edge2" class="edge">
<title>ca4m&#45;&gt;ca4l</title>
<path fill="none" stroke="#000000" d="M128.3549,-804.6338C135.3909,-794.5951 144.6409,-781.8451 153.4971,-771 157.0499,-766.6493 160.974,-762.1394 164.8391,-757.8442"/>
<polygon fill="#000000" stroke="#000000" points="167.4627,-760.1618 171.64,-750.4252 162.3026,-755.4317 167.4627,-760.1618"/>
<text text-anchor="middle" x="162.9971" y="-774.8" font-family="Times-Roman" font-size="14.00" fill="#000000">10</text>
</g>
<!-- nabg -->
<g id="node16" class="node">
<title>nabg</title>
<ellipse fill="none" stroke="#000000" cx="126.4971" cy="-594" rx="32.4942" ry="18"/>
<text text-anchor="middle" x="126.4971" y="-590.3" font-family="Times-Roman" font-size="14.00" fill="#000000">nabg</text>
</g>
<!-- ca4l&#45;&gt;nabg -->
<g id="edge11" class="edge">
<title>ca4l&#45;&gt;nabg</title>
<path fill="none" stroke="#000000" d="M175.4887,-718.3002C171.6068,-712.2741 167.2716,-705.3843 163.4971,-699 154.9947,-684.6188 151.6734,-681.523 145.4971,-666 139.9157,-651.9722 135.4727,-635.7597 132.2909,-622.2749"/>
<polygon fill="#000000" stroke="#000000" points="135.6204,-621.1276 130.0119,-612.139 128.7909,-622.6632 135.6204,-621.1276"/>
<text text-anchor="middle" x="172.9971" y="-687.8" font-family="Times-Roman" font-size="14.00" fill="#000000">49</text>
</g>
<!-- ca55 -->
<g id="node18" class="node">
<title>ca55</title>
<ellipse fill="none" stroke="#000000" cx="186.4971" cy="-648" rx="32.4942" ry="18"/>
<text text-anchor="middle" x="186.4971" y="-644.3" font-family="Times-Roman" font-size="14.00" fill="#000000">ca55</text>
</g>
<!-- ca4l&#45;&gt;ca55 -->
<g id="edge16" class="edge">
<title>ca4l&#45;&gt;ca55</title>
<path fill="none" stroke="#000000" d="M186.4971,-716.9735C186.4971,-705.1918 186.4971,-689.5607 186.4971,-676.1581"/>
<polygon fill="#000000" stroke="#000000" points="189.9972,-676.0033 186.4971,-666.0034 182.9972,-676.0034 189.9972,-676.0033"/>
<text text-anchor="middle" x="195.9971" y="-687.8" font-family="Times-Roman" font-size="14.00" fill="#000000">51</text>
</g>
<!-- ca4s -->
<g id="node5" class="node">
<title>ca4s</title>
<ellipse fill="none" stroke="#000000" cx="186.4971" cy="-540" rx="30.5947" ry="18"/>
<text text-anchor="middle" x="186.4971" y="-536.3" font-family="Times-Roman" font-size="14.00" fill="#000000">ca4s</text>
</g>
<!-- ca4r -->
<g id="node6" class="node">
<title>ca4r</title>
<ellipse fill="none" stroke="#000000" cx="253.4971" cy="-453" rx="30.5947" ry="18"/>
<text text-anchor="middle" x="253.4971" y="-449.3" font-family="Times-Roman" font-size="14.00" fill="#000000">ca4r</text>
</g>
<!-- ca4s&#45;&gt;ca4r -->
<g id="edge3" class="edge">
<title>ca4s&#45;&gt;ca4r</title>
<path fill="none" stroke="#000000" d="M196.8952,-523.0092C203.3268,-512.8677 211.9611,-499.8863 220.4971,-489 223.8126,-484.7716 227.509,-480.4305 231.1945,-476.2916"/>
<polygon fill="#000000" stroke="#000000" points="234.0024,-478.4072 238.1652,-468.6644 228.8353,-473.6848 234.0024,-478.4072"/>
<text text-anchor="middle" x="229.9971" y="-492.8" font-family="Times-Roman" font-size="14.00" fill="#000000">10</text>
</g>
<!-- ca5b -->
<g id="node14" class="node">
<title>ca5b</title>
<ellipse fill="none" stroke="#000000" cx="352.4971" cy="-366" rx="31.6951" ry="18"/>
<text text-anchor="middle" x="352.4971" y="-362.3" font-family="Times-Roman" font-size="14.00" fill="#000000">ca5b</text>
</g>
<!-- ca4r&#45;&gt;ca5b -->
<g id="edge17" class="edge">
<title>ca4r&#45;&gt;ca5b</title>
<path fill="none" stroke="#000000" d="M270.7416,-437.8458C286.403,-424.0827 309.6946,-403.6144 327.4155,-388.0415"/>
<polygon fill="#000000" stroke="#000000" points="329.9168,-390.5028 335.1181,-381.2725 325.296,-385.2446 329.9168,-390.5028"/>
<text text-anchor="middle" x="317.9971" y="-405.8" font-family="Times-Roman" font-size="14.00" fill="#000000">51</text>
</g>
<!-- ua5h -->
<g id="node17" class="node">
<title>ua5h</title>
<ellipse fill="none" stroke="#000000" cx="188.4971" cy="-366" rx="33.5952" ry="18"/>
<text text-anchor="middle" x="188.4971" y="-362.3" font-family="Times-Roman" font-size="14.00" fill="#000000">ua5h</text>
</g>
<!-- ca4r&#45;&gt;ua5h -->
<g id="edge12" class="edge">
<title>ca4r&#45;&gt;ua5h</title>
<path fill="none" stroke="#000000" d="M240.9645,-436.2255C231.4045,-423.4299 218.0811,-405.597 207.2529,-391.1039"/>
<polygon fill="#000000" stroke="#000000" points="210.0022,-388.936 201.2131,-383.0198 204.3945,-393.1257 210.0022,-388.936"/>
<text text-anchor="middle" x="233.9971" y="-405.8" font-family="Times-Roman" font-size="14.00" fill="#000000">49</text>
</g>
<!-- ca4O -->
<g id="node7" class="node">
<title>ca4O</title>
<ellipse fill="none" stroke="#000000" cx="116.4971" cy="-1083" rx="33.5952" ry="18"/>
<text text-anchor="middle" x="116.4971" y="-1079.3" font-family="Times-Roman" font-size="14.00" fill="#000000">ca4O</text>
</g>
<!-- ca4P -->
<g id="node8" class="node">
<title>ca4P</title>
<ellipse fill="none" stroke="#000000" cx="32.4971" cy="-996" rx="32.4942" ry="18"/>
<text text-anchor="middle" x="32.4971" y="-992.3" font-family="Times-Roman" font-size="14.00" fill="#000000">ca4P</text>
</g>
<!-- ca4O&#45;&gt;ca4P -->
<g id="edge4" class="edge">
<title>ca4O&#45;&gt;ca4P</title>
<path fill="none" stroke="#000000" d="M100.6974,-1066.636C87.8278,-1053.3067 69.4936,-1034.3178 55.0754,-1019.3846"/>
<polygon fill="#000000" stroke="#000000" points="57.4061,-1016.7597 47.9422,-1011.9967 52.3703,-1021.6219 57.4061,-1016.7597"/>
<text text-anchor="middle" x="88.9971" y="-1035.8" font-family="Times-Roman" font-size="14.00" fill="#000000">10</text>
</g>
<!-- ca4Q -->
<g id="node9" class="node">
<title>ca4Q</title>
<ellipse fill="none" stroke="#000000" cx="116.4971" cy="-996" rx="33.5952" ry="18"/>
<text text-anchor="middle" x="116.4971" y="-992.3" font-family="Times-Roman" font-size="14.00" fill="#000000">ca4Q</text>
</g>
<!-- ca4O&#45;&gt;ca4Q -->
<g id="edge20" class="edge">
<title>ca4O&#45;&gt;ca4Q</title>
<path fill="none" stroke="#000000" d="M116.4971,-1064.9735C116.4971,-1053.1918 116.4971,-1037.5607 116.4971,-1024.1581"/>
<polygon fill="#000000" stroke="#000000" points="119.9972,-1024.0033 116.4971,-1014.0034 112.9972,-1024.0034 119.9972,-1024.0033"/>
<text text-anchor="middle" x="125.9971" y="-1035.8" font-family="Times-Roman" font-size="14.00" fill="#000000">90</text>
</g>
<!-- ca40 -->
<g id="node10" class="node">
<title>ca40</title>
<ellipse fill="none" stroke="#000000" cx="116.4971" cy="-909" rx="32.4942" ry="18"/>
<text text-anchor="middle" x="116.4971" y="-905.3" font-family="Times-Roman" font-size="14.00" fill="#000000">ca40</text>
</g>
<!-- ca4Q&#45;&gt;ca40 -->
<g id="edge5" class="edge">
<title>ca4Q&#45;&gt;ca40</title>
<path fill="none" stroke="#000000" d="M116.4971,-977.9735C116.4971,-966.1918 116.4971,-950.5607 116.4971,-937.1581"/>
<polygon fill="#000000" stroke="#000000" points="119.9972,-937.0033 116.4971,-927.0034 112.9972,-937.0034 119.9972,-937.0033"/>
<text text-anchor="middle" x="125.9971" y="-948.8" font-family="Times-Roman" font-size="14.00" fill="#000000">10</text>
</g>
<!-- ca40&#45;&gt;ca4m -->
<g id="edge15" class="edge">
<title>ca40&#45;&gt;ca4m</title>
<path fill="none" stroke="#000000" d="M116.4971,-890.9735C116.4971,-879.1918 116.4971,-863.5607 116.4971,-850.1581"/>
<polygon fill="#000000" stroke="#000000" points="119.9972,-850.0033 116.4971,-840.0034 112.9972,-850.0034 119.9972,-850.0033"/>
<text text-anchor="middle" x="125.9971" y="-861.8" font-family="Times-Roman" font-size="14.00" fill="#000000">51</text>
</g>
<!-- ca40&#45;&gt;ca4l -->
<g id="edge10" class="edge">
<title>ca40&#45;&gt;ca4l</title>
<path fill="none" stroke="#000000" d="M127.5773,-891.8396C131.386,-885.8928 135.6567,-879.1709 139.4971,-873 148.5589,-858.4395 152.8458,-855.8077 159.4971,-840 170.099,-814.8033 177.3616,-784.4012 181.6615,-762.8096"/>
<polygon fill="#000000" stroke="#000000" points="185.1009,-763.4579 183.5361,-752.9793 178.2248,-762.1467 185.1009,-763.4579"/>
<text text-anchor="middle" x="180.9971" y="-818.3" font-family="Times-Roman" font-size="14.00" fill="#000000">49</text>
</g>
<!-- ca4S -->
<g id="node12" class="node">
<title>ca4S</title>
<ellipse fill="none" stroke="#000000" cx="270.4971" cy="-18" rx="32.4942" ry="18"/>
<text text-anchor="middle" x="270.4971" y="-14.3" font-family="Times-Roman" font-size="14.00" fill="#000000">ca4S</text>
</g>
<!-- ca4U&#45;&gt;ca4S -->
<g id="edge6" class="edge">
<title>ca4U&#45;&gt;ca4S</title>
<path fill="none" stroke="#000000" d="M267.3259,-86.9735C267.8676,-75.1918 268.5863,-59.5607 269.2025,-46.1581"/>
<polygon fill="#000000" stroke="#000000" points="272.7063,-46.1536 269.6694,-36.0034 265.7137,-45.832 272.7063,-46.1536"/>
<text text-anchor="middle" x="277.9971" y="-57.8" font-family="Times-Roman" font-size="14.00" fill="#000000">10</text>
</g>
<!-- ca46&#45;&gt;ca47 -->
<g id="edge22" class="edge">
<title>ca46&#45;&gt;ca47</title>
<path fill="none" stroke="#000000" d="M187.4971,-36.0471C187.4971,-66.2455 187.4971,-127.2509 187.4971,-163.3619"/>
<polygon fill="#000000" stroke="#000000" points="183.9972,-163.7078 187.4971,-173.7078 190.9972,-163.7079 183.9972,-163.7078"/>
<text text-anchor="middle" x="201.4971" y="-101.3" font-family="Times-Roman" font-size="14.00" fill="#000000">100</text>
</g>
<!-- ca5e -->
<g id="node15" class="node">
<title>ca5e</title>
<ellipse fill="none" stroke="#000000" cx="270.4971" cy="-279" rx="31.6951" ry="18"/>
<text text-anchor="middle" x="270.4971" y="-275.3" font-family="Times-Roman" font-size="14.00" fill="#000000">ca5e</text>
</g>
<!-- ca5b&#45;&gt;ca5e -->
<g id="edge8" class="edge">
<title>ca5b&#45;&gt;ca5e</title>
<path fill="none" stroke="#000000" d="M337.4571,-350.0429C324.9366,-336.7589 306.9292,-317.6535 292.7414,-302.6006"/>
<polygon fill="#000000" stroke="#000000" points="295.1254,-300.0271 285.7195,-295.1506 290.0314,-304.8283 295.1254,-300.0271"/>
<text text-anchor="middle" x="324.9971" y="-318.8" font-family="Times-Roman" font-size="14.00" fill="#000000">10</text>
</g>
<!-- ca5d -->
<g id="node19" class="node">
<title>ca5d</title>
<ellipse fill="none" stroke="#000000" cx="352.4971" cy="-279" rx="31.6951" ry="18"/>
<text text-anchor="middle" x="352.4971" y="-275.3" font-family="Times-Roman" font-size="14.00" fill="#000000">ca5d</text>
</g>
<!-- ca5b&#45;&gt;ca5d -->
<g id="edge21" class="edge">
<title>ca5b&#45;&gt;ca5d</title>
<path fill="none" stroke="#000000" d="M352.4971,-347.9735C352.4971,-336.1918 352.4971,-320.5607 352.4971,-307.1581"/>
<polygon fill="#000000" stroke="#000000" points="355.9972,-307.0033 352.4971,-297.0034 348.9972,-307.0034 355.9972,-307.0033"/>
<text text-anchor="middle" x="361.9971" y="-318.8" font-family="Times-Roman" font-size="14.00" fill="#000000">90</text>
</g>
<!-- ca5e&#45;&gt;ca4r -->
<g id="edge9" class="edge">
<title>ca5e&#45;&gt;ca4r</title>
<path fill="none" stroke="#000000" d="M268.7339,-297.0471C265.7835,-327.2455 259.8232,-388.2509 256.2951,-424.3619"/>
<polygon fill="#000000" stroke="#000000" points="252.7733,-424.4148 255.2843,-434.7078 259.7402,-425.0956 252.7733,-424.4148"/>
<text text-anchor="middle" x="272.9971" y="-362.3" font-family="Times-Roman" font-size="14.00" fill="#000000">10</text>
</g>
<!-- nabg&#45;&gt;ca47 -->
<g id="edge14" class="edge">
<title>nabg&#45;&gt;ca47</title>
<path fill="none" stroke="#000000" d="M126.4971,-575.6707C126.4971,-556.0742 126.4971,-524.0911 126.4971,-496.5 126.4971,-496.5 126.4971,-496.5 126.4971,-279 126.4971,-253.2449 144.6409,-229.7052 161.138,-213.625"/>
<polygon fill="#000000" stroke="#000000" points="163.5705,-216.1426 168.5307,-206.7806 158.8149,-211.006 163.5705,-216.1426"/>
<text text-anchor="middle" x="135.9971" y="-405.8" font-family="Times-Roman" font-size="14.00" fill="#000000">49</text>
</g>
<!-- nabh -->
<g id="node20" class="node">
<title>nabh</title>
<ellipse fill="none" stroke="#000000" cx="187.4971" cy="-279" rx="33.2948" ry="18"/>
<text text-anchor="middle" x="187.4971" y="-275.3" font-family="Times-Roman" font-size="14.00" fill="#000000">nabh</text>
</g>
<!-- ua5h&#45;&gt;nabh -->
<g id="edge24" class="edge">
<title>ua5h&#45;&gt;nabh</title>
<path fill="none" stroke="#000000" d="M188.2899,-347.9735C188.1545,-336.1918 187.9748,-320.5607 187.8208,-307.1581"/>
<polygon fill="#000000" stroke="#000000" points="191.3189,-306.9624 187.7041,-297.0034 184.3193,-307.043 191.3189,-306.9624"/>
<text text-anchor="middle" x="201.4971" y="-318.8" font-family="Times-Roman" font-size="14.00" fill="#000000">100</text>
</g>
<!-- ca55&#45;&gt;ca4s -->
<g id="edge18" class="edge">
<title>ca55&#45;&gt;ca4s</title>
<path fill="none" stroke="#000000" d="M186.4971,-629.6793C186.4971,-612.821 186.4971,-587.5651 186.4971,-568.147"/>
<polygon fill="#000000" stroke="#000000" points="189.9972,-568.0501 186.4971,-558.0502 182.9972,-568.0502 189.9972,-568.0501"/>
<text text-anchor="middle" x="195.9971" y="-590.3" font-family="Times-Roman" font-size="14.00" fill="#000000">51</text>
</g>
<!-- ca55&#45;&gt;ca4r -->
<g id="edge13" class="edge">
<title>ca55&#45;&gt;ca4r</title>
<path fill="none" stroke="#000000" d="M198.6903,-630.9511C202.498,-625.127 206.4853,-618.4516 209.4971,-612 229.7433,-568.6302 242.3061,-514.13 248.5894,-481.5109"/>
<polygon fill="#000000" stroke="#000000" points="252.0943,-481.8067 250.4815,-471.3353 245.2123,-480.5269 252.0943,-481.8067"/>
<text text-anchor="middle" x="248.9971" y="-536.3" font-family="Times-Roman" font-size="14.00" fill="#000000">49</text>
</g>
<!-- nabh&#45;&gt;ca47 -->
<g id="edge23" class="edge">
<title>nabh&#45;&gt;ca47</title>
<path fill="none" stroke="#000000" d="M187.4971,-260.9735C187.4971,-249.1918 187.4971,-233.5607 187.4971,-220.1581"/>
<polygon fill="#000000" stroke="#000000" points="190.9972,-220.0033 187.4971,-210.0034 183.9972,-220.0034 190.9972,-220.0033"/>
<text text-anchor="middle" x="201.4971" y="-231.8" font-family="Times-Roman" font-size="14.00" fill="#000000">100</text>
</g>
</g>
</svg>
