<?xml version="1.0" encoding="UTF-8" standalone="no"?>
<!DOCTYPE svg PUBLIC "-//W3C//DTD SVG 1.1//EN"
 "http://www.w3.org/Graphics/SVG/1.1/DTD/svg11.dtd">
<!-- Generated by graphviz version 2.40.1 (20161225.0304)
 -->
<!-- Title: %3 Pages: 1 -->
<svg width="278pt" height="305pt"
 viewBox="0.00 0.00 277.69 305.00" xmlns="http://www.w3.org/2000/svg" xmlns:xlink="http://www.w3.org/1999/xlink">
<g id="graph0" class="graph" transform="scale(1 1) rotate(0) translate(4 301)">
<title>%3</title>
<polygon fill="#ffffff" stroke="transparent" points="-4,4 -4,-301 273.6874,-301 273.6874,4 -4,4"/>
<!-- check_stack -->
<g id="node1" class="node">
<title>check_stack</title>
<ellipse fill="none" stroke="#000000" cx="205.3431" cy="-279" rx="64.189" ry="18"/>
<text text-anchor="middle" x="205.3431" y="-275.3" font-family="Times-Roman" font-size="14.00" fill="#000000">check_stack</text>
</g>
<!-- gc -->
<g id="node2" class="node">
<title>gc</title>
<ellipse fill="none" stroke="#000000" cx="109.3431" cy="-192" rx="27" ry="18"/>
<text text-anchor="middle" x="109.3431" y="-188.3" font-family="Times-Roman" font-size="14.00" fill="#000000">gc</text>
</g>
<!-- check_stack&#45;&gt;gc -->
<g id="edge1" class="edge">
<title>check_stack&#45;&gt;gc</title>
<path fill="none" stroke="#000000" d="M161.5609,-265.5345C149.538,-260.1102 137.3478,-252.7625 128.3431,-243 122.4224,-236.581 118.3003,-228.1496 115.4498,-219.9955"/>
<polygon fill="#000000" stroke="#000000" points="118.7821,-218.9219 112.5681,-210.3406 112.0745,-220.924 118.7821,-218.9219"/>
<text text-anchor="middle" x="164.8431" y="-231.8" font-family="Times-Roman" font-size="14.00" fill="#000000">exhausted</text>
</g>
<!-- x/=0 -->
<g id="node3" class="node">
<title>x/=0</title>
<ellipse fill="none" stroke="#000000" cx="205.3431" cy="-192" rx="32.4942" ry="18"/>
<text text-anchor="middle" x="205.3431" y="-188.3" font-family="Times-Roman" font-size="14.00" fill="#000000">x/=0</text>
</g>
<!-- check_stack&#45;&gt;x/=0 -->
<g id="edge2" class="edge">
<title>check_stack&#45;&gt;x/=0</title>
<path fill="none" stroke="#000000" d="M205.3431,-260.9735C205.3431,-249.1918 205.3431,-233.5607 205.3431,-220.1581"/>
<polygon fill="#000000" stroke="#000000" points="208.8432,-220.0033 205.3431,-210.0034 201.8432,-220.0034 208.8432,-220.0033"/>
<text text-anchor="middle" x="213.8431" y="-231.8" font-family="Times-Roman" font-size="14.00" fill="#000000">ok</text>
</g>
<!-- .. factorial(x&#45;1) -->
<g id="node4" class="node">
<title>.. factorial(x&#45;1)</title>
<ellipse fill="none" stroke="#000000" cx="77.3431" cy="-105" rx="77.1866" ry="18"/>
<text text-anchor="middle" x="77.3431" y="-101.3" font-family="Times-Roman" font-size="14.00" fill="#000000">.. factorial(x&#45;1)</text>
</g>
<!-- x/=0&#45;&gt;.. factorial(x&#45;1) -->
<g id="edge4" class="edge">
<title>x/=0&#45;&gt;.. factorial(x&#45;1)</title>
<path fill="none" stroke="#000000" d="M184.7777,-178.0219C164.8888,-164.5037 134.4036,-143.7833 110.9807,-127.8631"/>
<polygon fill="#000000" stroke="#000000" points="112.9415,-124.9638 102.7035,-122.2371 109.0065,-130.7532 112.9415,-124.9638"/>
<text text-anchor="middle" x="164.8431" y="-144.8" font-family="Times-Roman" font-size="14.00" fill="#000000">True</text>
</g>
<!-- ret 1 -->
<g id="node6" class="node">
<title>ret 1</title>
<ellipse fill="none" stroke="#000000" cx="205.3431" cy="-105" rx="32.4942" ry="18"/>
<text text-anchor="middle" x="205.3431" y="-101.3" font-family="Times-Roman" font-size="14.00" fill="#000000">ret 1</text>
</g>
<!-- x/=0&#45;&gt;ret 1 -->
<g id="edge5" class="edge">
<title>x/=0&#45;&gt;ret 1</title>
<path fill="none" stroke="#000000" d="M205.3431,-173.9735C205.3431,-162.1918 205.3431,-146.5607 205.3431,-133.1581"/>
<polygon fill="#000000" stroke="#000000" points="208.8432,-133.0033 205.3431,-123.0034 201.8432,-133.0034 208.8432,-133.0033"/>
<text text-anchor="middle" x="223.3431" y="-144.8" font-family="Times-Roman" font-size="14.00" fill="#000000">False</text>
</g>
<!-- x*call_result -->
<g id="node5" class="node">
<title>x*call_result</title>
<ellipse fill="none" stroke="#000000" cx="77.3431" cy="-18" rx="66.0889" ry="18"/>
<text text-anchor="middle" x="77.3431" y="-14.3" font-family="Times-Roman" font-size="14.00" fill="#000000">x*call_result</text>
</g>
<!-- .. factorial(x&#45;1)&#45;&gt;x*call_result -->
<g id="edge3" class="edge">
<title>.. factorial(x&#45;1)&#45;&gt;x*call_result</title>
<path fill="none" stroke="#000000" d="M77.3431,-86.9735C77.3431,-75.1918 77.3431,-59.5607 77.3431,-46.1581"/>
<polygon fill="#000000" stroke="#000000" points="80.8432,-46.0033 77.3431,-36.0034 73.8432,-46.0034 80.8432,-46.0033"/>
<text text-anchor="middle" x="86.8431" y="-57.8" font-family="Times-Roman" font-size="14.00" fill="#000000">10</text>
</g>
</g>
</svg>
