<?xml version="1.0" encoding="UTF-8" standalone="no"?>
<!DOCTYPE svg PUBLIC "-//W3C//DTD SVG 1.1//EN"
 "http://www.w3.org/Graphics/SVG/1.1/DTD/svg11.dtd">
<!-- Generated by graphviz version 2.40.1 (20161225.0304)
 -->
<!-- Title: %3 Pages: 1 -->
<svg width="293pt" height="740pt"
 viewBox="0.00 0.00 293.14 740.00" xmlns="http://www.w3.org/2000/svg" xmlns:xlink="http://www.w3.org/1999/xlink">
<g id="graph0" class="graph" transform="scale(1 1) rotate(0) translate(4 736)">
<title>%3</title>
<polygon fill="#ffffff" stroke="transparent" points="-4,4 -4,-736 289.1448,-736 289.1448,4 -4,4"/>
<!-- c82R -->
<g id="node1" class="node">
<title>c82R</title>
<ellipse fill="none" stroke="#000000" cx="93.5975" cy="-192" rx="33.2948" ry="18"/>
<text text-anchor="middle" x="93.5975" y="-188.3" font-family="Times-Roman" font-size="14.00" fill="#000000">c82R</text>
</g>
<!-- c8cI -->
<g id="node2" class="node">
<title>c8cI</title>
<ellipse fill="none" stroke="#000000" cx="28.5975" cy="-105" rx="28.6953" ry="18"/>
<text text-anchor="middle" x="28.5975" y="-101.3" font-family="Times-Roman" font-size="14.00" fill="#000000">c8cI</text>
</g>
<!-- c82R&#45;&gt;c8cI -->
<g id="edge1" class="edge">
<title>c82R&#45;&gt;c8cI</title>
<path fill="none" stroke="#000000" d="M77.8298,-176.0587C72.1427,-169.9909 65.8391,-162.8786 60.5975,-156 54.5491,-148.0627 48.5615,-138.9528 43.4306,-130.6486"/>
<polygon fill="#000000" stroke="#000000" points="46.4023,-128.7988 38.2369,-122.0476 40.41,-132.4172 46.4023,-128.7988"/>
<text text-anchor="middle" x="70.0975" y="-144.8" font-family="Times-Roman" font-size="14.00" fill="#000000">10</text>
</g>
<!-- c8cH -->
<g id="node8" class="node">
<title>c8cH</title>
<ellipse fill="none" stroke="#000000" cx="174.5975" cy="-105" rx="32.4942" ry="18"/>
<text text-anchor="middle" x="174.5975" y="-101.3" font-family="Times-Roman" font-size="14.00" fill="#000000">c8cH</text>
</g>
<!-- c82R&#45;&gt;c8cH -->
<g id="edge10" class="edge">
<title>c82R&#45;&gt;c8cH</title>
<path fill="none" stroke="#000000" d="M108.8329,-175.636C121.1649,-162.3906 138.7001,-143.5564 152.5628,-128.6669"/>
<polygon fill="#000000" stroke="#000000" points="155.1777,-130.9946 159.4303,-121.2907 150.0544,-126.2246 155.1777,-130.9946"/>
<text text-anchor="middle" x="149.0975" y="-144.8" font-family="Times-Roman" font-size="14.00" fill="#000000">90</text>
</g>
<!-- c82Q -->
<g id="node5" class="node">
<title>c82Q</title>
<ellipse fill="none" stroke="#000000" cx="90.5975" cy="-18" rx="34.394" ry="18"/>
<text text-anchor="middle" x="90.5975" y="-14.3" font-family="Times-Roman" font-size="14.00" fill="#000000">c82Q</text>
</g>
<!-- c8cI&#45;&gt;c82Q -->
<g id="edge3" class="edge">
<title>c8cI&#45;&gt;c82Q</title>
<path fill="none" stroke="#000000" d="M38.424,-88.0915C44.4915,-77.9792 52.6187,-64.9996 60.5975,-54 63.3591,-50.1927 66.4035,-46.2691 69.4619,-42.4758"/>
<polygon fill="#000000" stroke="#000000" points="72.4015,-44.413 76.0757,-34.4756 67.0064,-39.9528 72.4015,-44.413"/>
<text text-anchor="middle" x="70.0975" y="-57.8" font-family="Times-Roman" font-size="14.00" fill="#000000">10</text>
</g>
<!-- c8cC -->
<g id="node3" class="node">
<title>c8cC</title>
<ellipse fill="none" stroke="#000000" cx="132.5975" cy="-714" rx="31.6951" ry="18"/>
<text text-anchor="middle" x="132.5975" y="-710.3" font-family="Times-Roman" font-size="14.00" fill="#000000">c8cC</text>
</g>
<!-- c8cD -->
<g id="node4" class="node">
<title>c8cD</title>
<ellipse fill="none" stroke="#000000" cx="214.5975" cy="-627" rx="32.4942" ry="18"/>
<text text-anchor="middle" x="214.5975" y="-623.3" font-family="Times-Roman" font-size="14.00" fill="#000000">c8cD</text>
</g>
<!-- c8cC&#45;&gt;c8cD -->
<g id="edge2" class="edge">
<title>c8cC&#45;&gt;c8cD</title>
<path fill="none" stroke="#000000" d="M147.6375,-698.0429C160.158,-684.7589 178.1654,-665.6535 192.3532,-650.6006"/>
<polygon fill="#000000" stroke="#000000" points="195.0631,-652.8283 199.3751,-643.1506 189.9692,-648.0271 195.0631,-652.8283"/>
<text text-anchor="middle" x="187.0975" y="-666.8" font-family="Times-Roman" font-size="14.00" fill="#000000">10</text>
</g>
<!-- c8cE -->
<g id="node6" class="node">
<title>c8cE</title>
<ellipse fill="none" stroke="#000000" cx="132.5975" cy="-627" rx="31.3957" ry="18"/>
<text text-anchor="middle" x="132.5975" y="-623.3" font-family="Times-Roman" font-size="14.00" fill="#000000">c8cE</text>
</g>
<!-- c8cC&#45;&gt;c8cE -->
<g id="edge11" class="edge">
<title>c8cC&#45;&gt;c8cE</title>
<path fill="none" stroke="#000000" d="M132.5975,-695.9735C132.5975,-684.1918 132.5975,-668.5607 132.5975,-655.1581"/>
<polygon fill="#000000" stroke="#000000" points="136.0976,-655.0033 132.5975,-645.0034 129.0976,-655.0034 136.0976,-655.0033"/>
<text text-anchor="middle" x="142.0975" y="-666.8" font-family="Times-Roman" font-size="14.00" fill="#000000">90</text>
</g>
<!-- c82Q&#45;&gt;c82R -->
<g id="edge12" class="edge">
<title>c82Q&#45;&gt;c82R</title>
<path fill="none" stroke="#000000" d="M90.9086,-36.0471C91.4293,-66.2455 92.4811,-127.2509 93.1037,-163.3619"/>
<polygon fill="#000000" stroke="#000000" points="89.6101,-163.7697 93.2821,-173.7078 96.6091,-163.6489 89.6101,-163.7697"/>
<text text-anchor="middle" x="106.5975" y="-101.3" font-family="Times-Roman" font-size="14.00" fill="#000000">100</text>
</g>
<!-- c8cV -->
<g id="node7" class="node">
<title>c8cV</title>
<ellipse fill="none" stroke="#000000" cx="50.5975" cy="-540" rx="31.6951" ry="18"/>
<text text-anchor="middle" x="50.5975" y="-536.3" font-family="Times-Roman" font-size="14.00" fill="#000000">c8cV</text>
</g>
<!-- c8cE&#45;&gt;c8cV -->
<g id="edge4" class="edge">
<title>c8cE&#45;&gt;c8cV</title>
<path fill="none" stroke="#000000" d="M117.5574,-611.0429C105.0369,-597.7589 87.0295,-578.6535 72.8417,-563.6006"/>
<polygon fill="#000000" stroke="#000000" points="75.2258,-561.0271 65.8199,-556.1506 70.1318,-565.8283 75.2258,-561.0271"/>
<text text-anchor="middle" x="106.0975" y="-579.8" font-family="Times-Roman" font-size="14.00" fill="#000000">49</text>
</g>
<!-- c8cU -->
<g id="node12" class="node">
<title>c8cU</title>
<ellipse fill="none" stroke="#000000" cx="132.5975" cy="-540" rx="32.4942" ry="18"/>
<text text-anchor="middle" x="132.5975" y="-536.3" font-family="Times-Roman" font-size="14.00" fill="#000000">c8cU</text>
</g>
<!-- c8cE&#45;&gt;c8cU -->
<g id="edge7" class="edge">
<title>c8cE&#45;&gt;c8cU</title>
<path fill="none" stroke="#000000" d="M132.5975,-608.9735C132.5975,-597.1918 132.5975,-581.5607 132.5975,-568.1581"/>
<polygon fill="#000000" stroke="#000000" points="136.0976,-568.0033 132.5975,-558.0034 129.0976,-568.0034 136.0976,-568.0033"/>
<text text-anchor="middle" x="142.0975" y="-579.8" font-family="Times-Roman" font-size="14.00" fill="#000000">51</text>
</g>
<!-- s7NN -->
<g id="node10" class="node">
<title>s7NN</title>
<ellipse fill="none" stroke="#000000" cx="50.5975" cy="-453" rx="34.394" ry="18"/>
<text text-anchor="middle" x="50.5975" y="-449.3" font-family="Times-Roman" font-size="14.00" fill="#000000">s7NN</text>
</g>
<!-- c8cV&#45;&gt;s7NN -->
<g id="edge14" class="edge">
<title>c8cV&#45;&gt;s7NN</title>
<path fill="none" stroke="#000000" d="M50.5975,-521.9735C50.5975,-510.1918 50.5975,-494.5607 50.5975,-481.1581"/>
<polygon fill="#000000" stroke="#000000" points="54.0976,-481.0033 50.5975,-471.0034 47.0976,-481.0034 54.0976,-481.0033"/>
<text text-anchor="middle" x="64.5975" y="-492.8" font-family="Times-Roman" font-size="14.00" fill="#000000">100</text>
</g>
<!-- c8cK -->
<g id="node9" class="node">
<title>c8cK</title>
<ellipse fill="none" stroke="#000000" cx="174.5975" cy="-18" rx="31.3957" ry="18"/>
<text text-anchor="middle" x="174.5975" y="-14.3" font-family="Times-Roman" font-size="14.00" fill="#000000">c8cK</text>
</g>
<!-- c8cH&#45;&gt;c8cK -->
<g id="edge5" class="edge">
<title>c8cH&#45;&gt;c8cK</title>
<path fill="none" stroke="#000000" d="M174.5975,-86.9735C174.5975,-75.1918 174.5975,-59.5607 174.5975,-46.1581"/>
<polygon fill="#000000" stroke="#000000" points="178.0976,-46.0033 174.5975,-36.0034 171.0976,-46.0034 178.0976,-46.0033"/>
<text text-anchor="middle" x="184.0975" y="-57.8" font-family="Times-Roman" font-size="14.00" fill="#000000">49</text>
</g>
<!-- c8cL -->
<g id="node13" class="node">
<title>c8cL</title>
<ellipse fill="none" stroke="#000000" cx="254.5975" cy="-18" rx="30.5947" ry="18"/>
<text text-anchor="middle" x="254.5975" y="-14.3" font-family="Times-Roman" font-size="14.00" fill="#000000">c8cL</text>
</g>
<!-- c8cH&#45;&gt;c8cL -->
<g id="edge8" class="edge">
<title>c8cH&#45;&gt;c8cL</title>
<path fill="none" stroke="#000000" d="M189.6449,-88.636C201.9016,-75.3067 219.3627,-56.3178 233.0943,-41.3846"/>
<polygon fill="#000000" stroke="#000000" points="235.6954,-43.7268 239.8878,-33.9967 230.5427,-38.9887 235.6954,-43.7268"/>
<text text-anchor="middle" x="228.0975" y="-57.8" font-family="Times-Roman" font-size="14.00" fill="#000000">51</text>
</g>
<!-- c8cP -->
<g id="node11" class="node">
<title>c8cP</title>
<ellipse fill="none" stroke="#000000" cx="137.5975" cy="-366" rx="31.3957" ry="18"/>
<text text-anchor="middle" x="137.5975" y="-362.3" font-family="Times-Roman" font-size="14.00" fill="#000000">c8cP</text>
</g>
<!-- s7NN&#45;&gt;c8cP -->
<g id="edge6" class="edge">
<title>s7NN&#45;&gt;c8cP</title>
<path fill="none" stroke="#000000" d="M66.5546,-437.0429C79.9221,-423.6754 99.1845,-404.413 114.2804,-389.3171"/>
<polygon fill="#000000" stroke="#000000" points="117.1453,-391.402 121.7415,-381.856 112.1955,-386.4522 117.1453,-391.402"/>
<text text-anchor="middle" x="109.0975" y="-405.8" font-family="Times-Roman" font-size="14.00" fill="#000000">49</text>
</g>
<!-- n8h5 -->
<g id="node14" class="node">
<title>n8h5</title>
<ellipse fill="none" stroke="#000000" cx="50.5975" cy="-279" rx="34.394" ry="18"/>
<text text-anchor="middle" x="50.5975" y="-275.3" font-family="Times-Roman" font-size="14.00" fill="#000000">n8h5</text>
</g>
<!-- s7NN&#45;&gt;n8h5 -->
<g id="edge9" class="edge">
<title>s7NN&#45;&gt;n8h5</title>
<path fill="none" stroke="#000000" d="M50.5975,-434.7078C50.5975,-404.3436 50.5975,-343.3226 50.5975,-307.3464"/>
<polygon fill="#000000" stroke="#000000" points="54.0976,-307.0471 50.5975,-297.0471 47.0976,-307.0471 54.0976,-307.0471"/>
<text text-anchor="middle" x="60.0975" y="-362.3" font-family="Times-Roman" font-size="14.00" fill="#000000">51</text>
</g>
<!-- n8h6 -->
<g id="node15" class="node">
<title>n8h6</title>
<ellipse fill="none" stroke="#000000" cx="137.5975" cy="-279" rx="34.394" ry="18"/>
<text text-anchor="middle" x="137.5975" y="-275.3" font-family="Times-Roman" font-size="14.00" fill="#000000">n8h6</text>
</g>
<!-- c8cP&#45;&gt;n8h6 -->
<g id="edge13" class="edge">
<title>c8cP&#45;&gt;n8h6</title>
<path fill="none" stroke="#000000" d="M137.5975,-347.9735C137.5975,-336.1918 137.5975,-320.5607 137.5975,-307.1581"/>
<polygon fill="#000000" stroke="#000000" points="141.0976,-307.0033 137.5975,-297.0034 134.0976,-307.0034 141.0976,-307.0033"/>
<text text-anchor="middle" x="151.5975" y="-318.8" font-family="Times-Roman" font-size="14.00" fill="#000000">100</text>
</g>
<!-- n8h5&#45;&gt;c82R -->
<g id="edge15" class="edge">
<title>n8h5&#45;&gt;c82R</title>
<path fill="none" stroke="#000000" d="M59.2992,-261.3943C65.3607,-249.1303 73.556,-232.5489 80.4157,-218.67"/>
<polygon fill="#000000" stroke="#000000" points="83.6155,-220.0952 84.9087,-209.5796 77.3401,-216.9935 83.6155,-220.0952"/>
<text text-anchor="middle" x="89.5975" y="-231.8" font-family="Times-Roman" font-size="14.00" fill="#000000">100</text>
</g>
<!-- n8h6&#45;&gt;c82R -->
<g id="edge16" class="edge">
<title>n8h6&#45;&gt;c82R</title>
<path fill="none" stroke="#000000" d="M128.6934,-261.3943C122.4909,-249.1303 114.105,-232.5489 107.0858,-218.67"/>
<polygon fill="#000000" stroke="#000000" points="110.1247,-216.9236 102.4883,-209.5796 103.8782,-220.0828 110.1247,-216.9236"/>
<text text-anchor="middle" x="132.5975" y="-231.8" font-family="Times-Roman" font-size="14.00" fill="#000000">100</text>
</g>
</g>
</svg>
